Yogi Bear(2010)(1080p)(MKV)(DTS)(DD5.1)(x264)(NL-FL-UK audio)(NL subs)TBS

*****Momenteel te zien in 11 bioscopen******
  

Verenigde Staten / Nieuw-Zeeland
Animatie / Avontuur
80 minuten

geregisseerd door Eric Brevig
met de stemmen van Dan Akroyd, Justin Timberlake en Anna Faris

Yogi is een beer die in het Yellystone Park woont. Daar staat hij bekend bekend vanwege zijn talloze pogingen om picknick-mandjes te stelen van kampeerders. Dit tot groot ongenoegen van Park Ranger Smith. Yogi wordt altijd bijgestaan door de jonge beer Boo-Boo. Wanneer Yogi erachter komt dat de gierige Mayor Brown het Yellystone Park voor eens en altijd wil sluiten, moet hij een team vormen met Boo-Boo én oude vijand Ranger Smith om dit tegen te gaan, anders zullen families nooit meer kunnen genieten van de natuur en raken Yogi en Boo-Boo hun ''thuis'' kwijt. Tijdens het avontuur maken ze kennis met Rachel, een natuurdocumentaire-maker, die Yogi en Boo-Boo probeert te filmen voor haar volgende film.

Storyline

Jellystone Park is celebrating its 100 anniversary, however it may be for the last time, because attendance is down and Mayor Brown wants to close the park and sell the land. If the park is closed, Yogi Bear and Boo Boo will lose their home. They join forces with Ranger Smith to save Jellystone from closing forever. Yogi must really prove in this endeavor that he is "smarter than the average bear". 
 



SouRCe............: Blu-Ray Yogi.Bear.2010.1080p.Bluray.DTS.x264
ENCoDeR...........: x264 L4.1
ReSoLuTioN........: 1920x1080
FRaMeRaTe.........: 23.976 FPS
LaNGuaGe .........: English
SouRCe ...........: Blu-Ray
CoDeC ............: DTS 5.1 1.5 mbps
LaNGuaGe .........: Dutch
SouRCe ...........: Blu-Ray
CoDeC ............: AC3 5.1 640 kbps
LaNGuaGe .........: ENGLISH DUTCH AND FLEMMISH
SouRCe ...........: Blu-Ray
CoDeC ............: AC3 5.1 640 kbps
SuBTiTLes.........: Dutch
FoRMaT............: SRT
CoNTaiNer.........: MKV w/ chapters
FiLeSiZe..........: 7.9 GiB (DVD9)
Category..........: Video 
Format............: x264HD 
Source............: Retail 
 
  
http://www.moviemeter.nl/film/68045 
http://www.imdb.com/title/tt1302067 

TBS

MEDIA INFO

General
Complete name                    : Yogi Bear(2010)(1080p)(MKV)(DTS)(DD5.1)(x264)(NL & UK audio)(NL subs)TBS\Movie\Yogi.Bear.2010.1080p.Bluray.DTS.x264-SHiTSoNy.mkv
Format                           : Matroska
File size                        : 7.94 GiB
Duration                         : 1h 20mn
Overall bit rate                 : 14.1 Mbps
Encoded date                     : UTC 2011-04-28 18:03:35
Writing application              : mkvmerge v4.0.0 ('The Stars were mine') built on Jun  5 2010 17:44:09
Writing library                  : libebml v1.0.0 + libmatroska v1.0.0

Video
ID                               : 1
Format                           : AVC
Format/Info                      : Advanced Video Codec
Format profile                   : High@L4.1
Format settings, CABAC           : Yes
Format settings, ReFrames        : 4 frames
Muxing mode                      : Container profile=Unknown@4.1
Codec ID                         : V_MPEG4/ISO/AVC
Duration                         : 1h 20mn
Bit rate                         : 11.4 Mbps
Width                            : 1 920 pixels
Height                           : 1 080 pixels
Display aspect ratio             : 16:9
Frame rate                       : 23.976 fps
Color space                      : YUV
Chroma subsampling               : 4:2:0
Bit depth                        : 8 bits
Scan type                        : Progressive
Bits/(Pixel*Frame)               : 0.229
Stream size                      : 6.22 GiB (78%)
Writing library                  : x264 core 114 r1913 5fd3dce
Encoding settings                : cabac=1 / ref=4 / deblock=1:-2:-1 / analyse=0x3:0x113 / me=umh / subme=10 / psy=1 / psy_rd=1.00:0.00 / mixed_ref=1 / me_range=24 / chroma_me=1 / trellis=2 / 8x8dct=1 / cqm=0 / deadzone=21,11 / fast_pskip=1 / chroma_qp_offset=-2 / threads=6 / sliced_threads=0 / nr=0 / decimate=1 / interlaced=0 / constrained_intra=0 / bframes=8 / b_pyramid=2 / b_adapt=2 / b_bias=0 / direct=3 / weightb=1 / open_gop=0 / weightp=2 / keyint=250 / keyint_min=23 / scenecut=40 / intra_refresh=0 / rc_lookahead=40 / rc=2pass / mbtree=0 / bitrate=11363 / ratetol=1.0 / qcomp=0.60 / qpmin=0 / qpmax=69 / qpstep=4 / cplxblur=20.0 / qblur=0.5 / vbv_maxrate=32000 / vbv_bufsize=40000 / nal_hrd=none / ip_ratio=1.40 / pb_ratio=1.30 / aq=1:1.00 / zones=108971,115483,q=29,deblock=1:2

Audio #1
ID                               : 2
Format                           : DTS
Format/Info                      : Digital Theater Systems
Codec ID                         : A_DTS
Duration                         : 1h 20mn
Bit rate mode                    : Constant
Bit rate                         : 1 510 Kbps
Channel(s)                       : 6 channels
Channel positions                : Front: L C R, Side: L R, LFE
Sampling rate                    : 48.0 KHz
Bit depth                        : 24 bits
Stream size                      : 868 MiB (11%)

Audio #2
ID                               : 3
Format                           : AC-3
Format/Info                      : Audio Coding 3
Mode extension                   : CM (complete main)
Codec ID                         : A_AC3
Duration                         : 1h 20mn
Bit rate mode                    : Constant
Bit rate                         : 640 Kbps
Channel(s)                       : 6 channels
Channel positions                : Front: L C R, Side: L R, LFE
Sampling rate                    : 48.0 KHz
Bit depth                        : 16 bits
Stream size                      : 368 MiB (5%)
Language                         : Dutch

Audio #3
ID                               : 4
Format                           : AC-3
Format/Info                      : Audio Coding 3
Mode extension                   : CM (complete main)
Codec ID                         : A_AC3
Duration                         : 1h 20mn
Bit rate mode                    : Constant
Bit rate                         : 640 Kbps
Channel(s)                       : 6 channels
Channel positions                : Front: L C R, Side: L R, LFE
Sampling rate                    : 48.0 KHz
Bit depth                        : 16 bits
Stream size                      : 368 MiB (5%)
Title                            : Flemish
Language                         : dum

Text #1
ID                               : 5
Format                           : UTF-8
Codec ID                         : S_TEXT/UTF8
Codec ID/Info                    : UTF-8 Plain Text
Language                         : Dutch

Text #2
ID                               : 6
Format                           : UTF-8
Codec ID                         : S_TEXT/UTF8
Codec ID/Info                    : UTF-8 Plain Text
Title                            : OStext
Language                         : Dutch

Menu
00:00:00.000                     : en:00:00:00.000
00:12:01.679                     : en:00:12:01.679
00:20:53.127                     : en:00:20:53.127
00:30:57.272                     : en:00:30:57.272
00:41:42.834                     : en:00:41:42.834
00:51:03.978                     : en:00:51:03.978
00:59:09.171                     : en:00:59:09.171
01:12:53.786                     : en:01:12:53.786

